# This file uses centimeters as units for non-parametric coordinates.

mtllib cuadro de mandos.mtl
g default
v 0.012672 -0.000000 0.963264
v 0.496643 -0.000000 0.963264
v 0.012672 1.362291 0.963264
v 0.496643 1.362291 0.963264
v 0.012672 1.362291 -2.069648
v 0.496643 1.362291 -2.069648
v 0.012672 -0.000000 -2.069648
v 0.496643 -0.000000 -2.069648
vt 0.999041 0.004843
vt 0.999042 0.300799
vt 0.913289 0.300799
vt 0.913289 0.004843
vt 0.874095 0.171321
vt 0.896337 0.171321
vt 0.896337 0.283688
vt 0.874095 0.283688
vt 0.869805 0.073385
vt 0.900620 0.073385
vt 0.900620 0.266602
vt 0.869805 0.266602
vt 0.874341 0.064621
vt 0.897157 0.064621
vt 0.897157 0.303006
vt 0.874341 0.303006
vt 0.878473 0.087848
vt 0.895166 0.087848
vt 0.895166 0.263666
vt 0.878473 0.263666
vn 0.000000 0.000000 1.000000
vn 0.000000 0.000000 1.000000
vn 0.000000 0.000000 1.000000
vn 0.000000 0.000000 1.000000
vn 0.000000 1.000000 0.000000
vn 0.000000 1.000000 0.000000
vn 0.000000 1.000000 0.000000
vn 0.000000 1.000000 0.000000
vn 0.000000 0.000000 -1.000000
vn 0.000000 0.000000 -1.000000
vn 0.000000 0.000000 -1.000000
vn 0.000000 0.000000 -1.000000
vn 0.000000 -1.000000 0.000000
vn 0.000000 -1.000000 0.000000
vn 0.000000 -1.000000 0.000000
vn 0.000000 -1.000000 0.000000
vn 1.000000 0.000000 0.000000
vn 1.000000 0.000000 0.000000
vn 1.000000 0.000000 0.000000
vn 1.000000 0.000000 0.000000
s off
g pCube1
usemtl initialShadingGroup
f 1/13/1 2/14/2 4/15/3 3/16/4
f 3/5/5 4/6/6 6/7/7 5/8/8
f 5/17/9 6/18/10 8/19/11 7/20/12
f 7/9/13 8/10/14 2/11/15 1/12/16
f 2/1/17 8/2/18 6/3/19 4/4/20
