# This file uses centimeters as units for non-parametric coordinates.

mtllib microondas.mtl
g default
v -0.655177 0.000000 1.000000
v 0.655177 0.000000 1.000000
v -0.655177 1.260394 1.000000
v 0.655177 1.260394 1.000000
v -0.655177 1.260394 -1.000000
v 0.655177 1.260394 -1.000000
v -0.655177 0.000000 -1.000000
v 0.655177 0.000000 -1.000000
vt 0.998266 0.327291
vt 0.998266 0.498033
vt 0.862208 0.498033
vt 0.862208 0.327291
vt 0.863359 0.689141
vt 0.863359 0.530181
vt 0.999219 0.530181
vt 0.999219 0.689141
vt 0.857160 0.524422
vt 1.001624 0.524422
vt 1.001624 0.694099
vt 0.857160 0.694099
vt 0.860287 0.701683
vt 0.860287 0.531238
vt 0.993662 0.531238
vt 0.993662 0.701683
vt 0.860623 0.703390
vt 0.860623 0.525375
vt 0.996687 0.525375
vt 0.996687 0.703390
vn 0.000000 0.000000 1.000000
vn 0.000000 0.000000 1.000000
vn 0.000000 0.000000 1.000000
vn 0.000000 0.000000 1.000000
vn 0.000000 1.000000 0.000000
vn 0.000000 1.000000 0.000000
vn 0.000000 1.000000 0.000000
vn 0.000000 1.000000 0.000000
vn 0.000000 0.000000 -1.000000
vn 0.000000 0.000000 -1.000000
vn 0.000000 0.000000 -1.000000
vn 0.000000 0.000000 -1.000000
vn 1.000000 0.000000 0.000000
vn 1.000000 0.000000 0.000000
vn 1.000000 0.000000 0.000000
vn 1.000000 0.000000 0.000000
vn -1.000000 0.000000 0.000000
vn -1.000000 0.000000 0.000000
vn -1.000000 0.000000 0.000000
vn -1.000000 0.000000 0.000000
s off
g pCube1
usemtl initialShadingGroup
f 1/13/1 2/14/2 4/15/3 3/16/4
f 3/9/5 4/10/6 6/11/7 5/12/8
f 5/17/9 6/18/10 8/19/11 7/20/12
f 2/1/13 8/2/14 6/3/15 4/4/16
f 7/5/17 1/6/18 3/7/19 5/8/20
