# This file uses centimeters as units for non-parametric coordinates.

mtllib pelota.mtl
g default
v 0.164159 0.835874 -0.299916
v 0.043430 0.835874 -0.349923
v -0.077299 0.835874 -0.299916
v -0.127307 0.835874 -0.179187
v -0.077299 0.835874 -0.058458
v 0.043430 0.835874 -0.008450
v 0.164159 0.835874 -0.058458
v 0.214167 0.835874 -0.179187
v 0.266508 0.932589 -0.402265
v 0.043430 0.932589 -0.494667
v -0.179648 0.932589 -0.402265
v -0.272050 0.932589 -0.179187
v -0.179648 0.932589 0.043892
v 0.043430 0.932589 0.136294
v 0.266508 0.932589 0.043892
v 0.358910 0.932589 -0.179187
v 0.334896 1.077332 -0.470652
v 0.043430 1.077332 -0.591381
v -0.248036 1.077332 -0.470652
v -0.368765 1.077332 -0.179187
v -0.248036 1.077332 0.112279
v 0.043430 1.077332 0.233008
v 0.334896 1.077332 0.112279
v 0.455625 1.077332 -0.179187
v 0.358910 1.248069 -0.494667
v 0.043430 1.248069 -0.625343
v -0.272050 1.248069 -0.494667
v -0.402726 1.248069 -0.179187
v -0.272050 1.248069 0.136294
v 0.043430 1.248069 0.266970
v 0.358910 1.248069 0.136294
v 0.489587 1.248069 -0.179187
v 0.334896 1.418806 -0.470652
v 0.043430 1.418806 -0.591381
v -0.248036 1.418806 -0.470652
v -0.368765 1.418806 -0.179187
v -0.248036 1.418806 0.112279
v 0.043430 1.418806 0.233008
v 0.334896 1.418806 0.112279
v 0.455625 1.418806 -0.179187
v 0.266508 1.563549 -0.402265
v 0.043430 1.563549 -0.494667
v -0.179648 1.563549 -0.402265
v -0.272050 1.563549 -0.179187
v -0.179648 1.563549 0.043892
v 0.043430 1.563549 0.136294
v 0.266508 1.563549 0.043892
v 0.358910 1.563549 -0.179187
v 0.164159 1.660264 -0.299916
v 0.043430 1.660264 -0.349923
v -0.077299 1.660264 -0.299916
v -0.127307 1.660264 -0.179187
v -0.077299 1.660264 -0.058458
v 0.043430 1.660264 -0.008450
v 0.164159 1.660264 -0.058458
v 0.214167 1.660264 -0.179187
v 0.043430 0.801912 -0.179187
v 0.043430 1.694226 -0.179187
vt 0.622631 0.862386
vt 0.622631 0.877006
vt 0.655779 0.877006
vt 0.627366 0.862386
vt 0.627366 0.877006
vt 0.632102 0.862386
vt 0.632102 0.877006
vt 0.636837 0.862386
vt 0.636837 0.877006
vt 0.641573 0.862386
vt 0.641573 0.877006
vt 0.646308 0.877006
vt 0.651044 0.877006
vt 0.622631 0.891627
vt 0.655779 0.891627
vt 0.627366 0.891627
vt 0.632102 0.891627
vt 0.636837 0.891627
vt 0.641573 0.891627
vt 0.646308 0.891627
vt 0.651044 0.891627
vt 0.622631 0.906247
vt 0.655779 0.906247
vt 0.627366 0.906247
vt 0.632102 0.906247
vt 0.636837 0.906247
vt 0.641573 0.906247
vt 0.646308 0.906247
vt 0.651044 0.906247
vt 0.622631 0.920868
vt 0.655779 0.920868
vt 0.627366 0.920868
vt 0.632102 0.920868
vt 0.636837 0.920868
vt 0.641573 0.920868
vt 0.646308 0.920868
vt 0.651044 0.920868
vt 0.622631 0.935488
vt 0.655779 0.935488
vt 0.627366 0.935488
vt 0.632102 0.935488
vt 0.636837 0.935488
vt 0.641573 0.935488
vt 0.646308 0.935488
vt 0.651044 0.935488
vt 0.622631 0.950109
vt 0.627366 0.950109
vt 0.632102 0.950109
vt 0.636837 0.950109
vt 0.641573 0.950109
vt 0.646308 0.950109
vt 0.630162 0.847765
vt 0.630162 0.964729
vt 0.660515 0.862386
vt 0.660515 0.877006
vt 0.660515 0.891627
vt 0.660515 0.906247
vt 0.660515 0.920868
vt 0.660515 0.935488
vt 0.655779 0.862386
vt 0.668046 0.847765
vt 0.646308 0.862386
vt 0.651044 0.862386
vt 0.660515 0.950109
vt 0.651044 0.950109
vt 0.684192 0.950109
vt 0.655779 0.950109
vt 0.668046 0.964729
vn 0.224263 -0.810291 -0.541419
vn 0.224263 -0.810291 -0.541419
vn 0.224263 -0.810291 -0.541419
vn 0.224263 -0.810291 -0.541419
vn -0.224263 -0.810291 -0.541419
vn -0.224263 -0.810291 -0.541419
vn -0.224263 -0.810291 -0.541419
vn -0.224263 -0.810291 -0.541420
vn -0.541419 -0.810291 -0.224263
vn -0.541419 -0.810291 -0.224263
vn -0.541419 -0.810291 -0.224263
vn -0.541419 -0.810291 -0.224263
vn -0.541419 -0.810291 0.224263
vn -0.541419 -0.810291 0.224263
vn -0.541419 -0.810291 0.224263
vn -0.541419 -0.810291 0.224263
vn -0.224263 -0.810291 0.541419
vn -0.224263 -0.810291 0.541419
vn -0.224263 -0.810291 0.541419
vn -0.224263 -0.810291 0.541419
vn 0.224263 -0.810291 0.541419
vn 0.224263 -0.810291 0.541419
vn 0.224263 -0.810291 0.541419
vn 0.224263 -0.810291 0.541419
vn 0.541419 -0.810291 0.224263
vn 0.541419 -0.810291 0.224263
vn 0.541419 -0.810291 0.224263
vn 0.541419 -0.810291 0.224263
vn 0.541419 -0.810291 -0.224263
vn 0.541419 -0.810291 -0.224263
vn 0.541419 -0.810291 -0.224263
vn 0.541419 -0.810291 -0.224263
vn 0.325634 -0.525289 -0.786151
vn 0.325634 -0.525289 -0.786151
vn 0.325634 -0.525289 -0.786151
vn 0.325634 -0.525289 -0.786151
vn -0.325634 -0.525289 -0.786151
vn -0.325634 -0.525289 -0.786151
vn -0.325634 -0.525289 -0.786151
vn -0.325634 -0.525289 -0.786151
vn -0.786151 -0.525289 -0.325634
vn -0.786151 -0.525289 -0.325634
vn -0.786151 -0.525289 -0.325634
vn -0.786151 -0.525289 -0.325634
vn -0.786151 -0.525289 0.325634
vn -0.786151 -0.525289 0.325634
vn -0.786151 -0.525289 0.325634
vn -0.786151 -0.525289 0.325634
vn -0.325634 -0.525289 0.786151
vn -0.325634 -0.525289 0.786151
vn -0.325634 -0.525289 0.786151
vn -0.325634 -0.525289 0.786151
vn 0.325634 -0.525289 0.786151
vn 0.325634 -0.525289 0.786151
vn 0.325634 -0.525289 0.786151
vn 0.325634 -0.525289 0.786151
vn 0.786151 -0.525289 0.325634
vn 0.786151 -0.525289 0.325634
vn 0.786151 -0.525289 0.325634
vn 0.786151 -0.525289 0.325634
vn 0.786151 -0.525289 -0.325635
vn 0.786151 -0.525289 -0.325635
vn 0.786151 -0.525289 -0.325635
vn 0.786151 -0.525289 -0.325635
vn 0.376381 -0.180744 -0.908663
vn 0.376381 -0.180744 -0.908663
vn 0.376381 -0.180744 -0.908663
vn 0.376381 -0.180744 -0.908663
vn -0.376381 -0.180744 -0.908663
vn -0.376381 -0.180744 -0.908663
vn -0.376381 -0.180744 -0.908663
vn -0.376381 -0.180744 -0.908663
vn -0.908663 -0.180744 -0.376381
vn -0.908663 -0.180744 -0.376381
vn -0.908663 -0.180744 -0.376381
vn -0.908663 -0.180744 -0.376381
vn -0.908663 -0.180744 0.376381
vn -0.908663 -0.180744 0.376381
vn -0.908663 -0.180744 0.376381
vn -0.908663 -0.180744 0.376381
vn -0.376381 -0.180745 0.908663
vn -0.376381 -0.180745 0.908663
vn -0.376381 -0.180745 0.908663
vn -0.376381 -0.180745 0.908663
vn 0.376381 -0.180744 0.908663
vn 0.376381 -0.180744 0.908663
vn 0.376381 -0.180744 0.908663
vn 0.376381 -0.180744 0.908663
vn 0.908663 -0.180744 0.376381
vn 0.908663 -0.180744 0.376381
vn 0.908663 -0.180744 0.376381
vn 0.908663 -0.180744 0.376381
vn 0.908663 -0.180744 -0.376381
vn 0.908663 -0.180744 -0.376381
vn 0.908663 -0.180744 -0.376381
vn 0.908663 -0.180744 -0.376381
vn 0.376381 0.180745 -0.908663
vn 0.376381 0.180745 -0.908663
vn 0.376381 0.180745 -0.908663
vn 0.376381 0.180745 -0.908663
vn -0.376381 0.180745 -0.908663
vn -0.376381 0.180745 -0.908663
vn -0.376381 0.180745 -0.908663
vn -0.376381 0.180745 -0.908663
vn -0.908663 0.180744 -0.376381
vn -0.908663 0.180744 -0.376381
vn -0.908663 0.180744 -0.376381
vn -0.908663 0.180744 -0.376381
vn -0.908663 0.180744 0.376381
vn -0.908663 0.180744 0.376381
vn -0.908663 0.180744 0.376381
vn -0.908663 0.180744 0.376381
vn -0.376381 0.180745 0.908663
vn -0.376381 0.180745 0.908663
vn -0.376381 0.180745 0.908663
vn -0.376381 0.180745 0.908663
vn 0.376381 0.180745 0.908663
vn 0.376381 0.180745 0.908663
vn 0.376381 0.180745 0.908663
vn 0.376381 0.180745 0.908663
vn 0.908663 0.180744 0.376381
vn 0.908663 0.180744 0.376381
vn 0.908663 0.180744 0.376381
vn 0.908663 0.180744 0.376381
vn 0.908663 0.180745 -0.376381
vn 0.908663 0.180745 -0.376381
vn 0.908663 0.180745 -0.376381
vn 0.908663 0.180745 -0.376381
vn 0.325634 0.525289 -0.786151
vn 0.325634 0.525289 -0.786151
vn 0.325634 0.525289 -0.786151
vn 0.325634 0.525289 -0.786151
vn -0.325634 0.525289 -0.786151
vn -0.325634 0.525289 -0.786151
vn -0.325634 0.525289 -0.786151
vn -0.325634 0.525289 -0.786151
vn -0.786151 0.525289 -0.325634
vn -0.786151 0.525289 -0.325634
vn -0.786151 0.525289 -0.325634
vn -0.786151 0.525289 -0.325634
vn -0.786151 0.525289 0.325634
vn -0.786151 0.525289 0.325634
vn -0.786151 0.525289 0.325634
vn -0.786151 0.525289 0.325634
vn -0.325634 0.525289 0.786151
vn -0.325634 0.525289 0.786151
vn -0.325634 0.525289 0.786151
vn -0.325634 0.525289 0.786151
vn 0.325634 0.525289 0.786151
vn 0.325634 0.525289 0.786151
vn 0.325634 0.525289 0.786151
vn 0.325634 0.525289 0.786151
vn 0.786151 0.525289 0.325634
vn 0.786151 0.525289 0.325634
vn 0.786151 0.525289 0.325634
vn 0.786151 0.525289 0.325634
vn 0.786151 0.525289 -0.325635
vn 0.786151 0.525289 -0.325635
vn 0.786151 0.525289 -0.325635
vn 0.786151 0.525289 -0.325635
vn 0.224263 0.810291 -0.541419
vn 0.224263 0.810291 -0.541419
vn 0.224263 0.810291 -0.541419
vn 0.224263 0.810291 -0.541419
vn -0.224263 0.810291 -0.541419
vn -0.224263 0.810291 -0.541419
vn -0.224263 0.810291 -0.541419
vn -0.224263 0.810291 -0.541419
vn -0.541419 0.810291 -0.224263
vn -0.541419 0.810291 -0.224263
vn -0.541419 0.810291 -0.224263
vn -0.541419 0.810291 -0.224263
vn -0.541419 0.810291 0.224263
vn -0.541419 0.810291 0.224263
vn -0.541419 0.810291 0.224263
vn -0.541419 0.810291 0.224263
vn -0.224263 0.810291 0.541419
vn -0.224263 0.810291 0.541419
vn -0.224263 0.810291 0.541419
vn -0.224263 0.810291 0.541419
vn 0.224263 0.810291 0.541419
vn 0.224263 0.810291 0.541419
vn 0.224263 0.810291 0.541419
vn 0.224263 0.810291 0.541419
vn 0.541419 0.810291 0.224263
vn 0.541419 0.810291 0.224263
vn 0.541419 0.810291 0.224263
vn 0.541419 0.810291 0.224263
vn 0.541419 0.810291 -0.224263
vn 0.541419 0.810291 -0.224263
vn 0.541419 0.810291 -0.224263
vn 0.541419 0.810291 -0.224263
vn 0.080547 -0.977599 -0.194457
vn 0.080547 -0.977599 -0.194457
vn 0.080547 -0.977599 -0.194457
vn -0.080547 -0.977598 -0.194457
vn -0.080547 -0.977599 -0.194457
vn -0.080547 -0.977599 -0.194457
vn -0.194457 -0.977598 -0.080547
vn -0.194457 -0.977598 -0.080547
vn -0.194457 -0.977599 -0.080547
vn -0.194457 -0.977599 0.080546
vn -0.194457 -0.977599 0.080546
vn -0.194457 -0.977599 0.080546
vn -0.080547 -0.977599 0.194457
vn -0.080547 -0.977599 0.194457
vn -0.080547 -0.977598 0.194457
vn 0.080547 -0.977599 0.194456
vn 0.080547 -0.977599 0.194456
vn 0.080547 -0.977599 0.194456
vn 0.194457 -0.977599 0.080547
vn 0.194457 -0.977599 0.080547
vn 0.194457 -0.977599 0.080547
vn 0.194457 -0.977599 -0.080547
vn 0.194457 -0.977598 -0.080547
vn 0.194457 -0.977598 -0.080547
vn 0.080547 0.977599 -0.194457
vn 0.080547 0.977599 -0.194457
vn 0.080547 0.977598 -0.194457
vn -0.080547 0.977599 -0.194457
vn -0.080547 0.977598 -0.194457
vn -0.080547 0.977598 -0.194457
vn -0.194457 0.977598 -0.080547
vn -0.194457 0.977598 -0.080547
vn -0.194457 0.977598 -0.080547
vn -0.194457 0.977598 0.080547
vn -0.194457 0.977598 0.080547
vn -0.194457 0.977598 0.080547
vn -0.080547 0.977599 0.194457
vn -0.080547 0.977598 0.194457
vn -0.080547 0.977598 0.194457
vn 0.080547 0.977598 0.194457
vn 0.080547 0.977598 0.194457
vn 0.080547 0.977598 0.194457
vn 0.194457 0.977598 0.080547
vn 0.194457 0.977598 0.080547
vn 0.194457 0.977598 0.080547
vn 0.194457 0.977599 -0.080547
vn 0.194457 0.977599 -0.080547
vn 0.194457 0.977598 -0.080547
s off
g pSphere1
usemtl initialShadingGroup
f 1/60/1 2/54/2 10/55/3 9/3/4
f 2/1/5 3/4/6 11/5/7 10/2/8
f 3/4/9 4/6/10 12/7/11 11/5/12
f 4/6/13 5/8/14 13/9/15 12/7/16
f 5/8/17 6/10/18 14/11/19 13/9/20
f 6/10/21 7/62/22 15/12/23 14/11/24
f 7/62/25 8/63/26 16/13/27 15/12/28
f 8/63/29 1/60/30 9/3/31 16/13/32
f 9/3/33 10/55/34 18/56/35 17/15/36
f 10/2/37 11/5/38 19/16/39 18/14/40
f 11/5/41 12/7/42 20/17/43 19/16/44
f 12/7/45 13/9/46 21/18/47 20/17/48
f 13/9/49 14/11/50 22/19/51 21/18/52
f 14/11/53 15/12/54 23/20/55 22/19/56
f 15/12/57 16/13/58 24/21/59 23/20/60
f 16/13/61 9/3/62 17/15/63 24/21/64
f 17/15/65 18/56/66 26/57/67 25/23/68
f 18/14/69 19/16/70 27/24/71 26/22/72
f 19/16/73 20/17/74 28/25/75 27/24/76
f 20/17/77 21/18/78 29/26/79 28/25/80
f 21/18/81 22/19/82 30/27/83 29/26/84
f 22/19/85 23/20/86 31/28/87 30/27/88
f 23/20/89 24/21/90 32/29/91 31/28/92
f 24/21/93 17/15/94 25/23/95 32/29/96
f 25/23/97 26/57/98 34/58/99 33/31/100
f 26/22/101 27/24/102 35/32/103 34/30/104
f 27/24/105 28/25/106 36/33/107 35/32/108
f 28/25/109 29/26/110 37/34/111 36/33/112
f 29/26/113 30/27/114 38/35/115 37/34/116
f 30/27/117 31/28/118 39/36/119 38/35/120
f 31/28/121 32/29/122 40/37/123 39/36/124
f 32/29/125 25/23/126 33/31/127 40/37/128
f 33/31/129 34/58/130 42/59/131 41/39/132
f 34/30/133 35/32/134 43/40/135 42/38/136
f 35/32/137 36/33/138 44/41/139 43/40/140
f 36/33/141 37/34/142 45/42/143 44/41/144
f 37/34/145 38/35/146 46/43/147 45/42/148
f 38/35/149 39/36/150 47/44/151 46/43/152
f 39/36/153 40/37/154 48/45/155 47/44/156
f 40/37/157 33/31/158 41/39/159 48/45/160
f 41/39/161 42/59/162 50/64/163 49/67/164
f 42/38/165 43/40/166 51/47/167 50/46/168
f 43/40/169 44/41/170 52/48/171 51/47/172
f 44/41/173 45/42/174 53/49/175 52/48/176
f 45/42/177 46/43/178 54/50/179 53/49/180
f 46/43/181 47/44/182 55/51/183 54/50/184
f 47/44/185 48/45/186 56/65/187 55/51/188
f 48/45/189 41/39/190 49/67/191 56/65/192
f 2/54/193 1/60/194 57/61/195
f 3/4/196 2/1/197 57/52/198
f 4/6/199 3/4/200 57/52/201
f 5/8/202 4/6/203 57/52/204
f 6/10/205 5/8/206 57/52/207
f 7/62/208 6/10/209 57/52/210
f 8/63/211 7/62/212 57/61/213
f 1/60/214 8/63/215 57/61/216
f 49/67/217 50/64/218 58/68/219
f 50/46/220 51/47/221 58/53/222
f 51/47/223 52/48/224 58/53/225
f 52/48/226 53/49/227 58/53/228
f 53/49/229 54/50/230 58/53/231
f 54/50/232 55/51/233 58/53/234
f 55/66/235 56/65/236 58/68/237
f 56/65/238 49/67/239 58/68/240
