# This file uses centimeters as units for non-parametric coordinates.

mtllib platos.mtl
g default
v 0.652906 0.000000 -0.652906
v 0.000000 0.000000 -0.923349
v -0.652906 0.000000 -0.652906
v -0.923349 0.000000 0.000000
v -0.652906 0.000000 0.652906
v 0.000000 0.000000 0.923349
v 0.652906 0.000000 0.652906
v 0.923349 0.000000 0.000000
v 0.652906 0.375139 -0.652906
v 0.000000 0.375139 -0.923349
v -0.652906 0.375139 -0.652906
v -0.923349 0.375139 0.000000
v -0.652906 0.375139 0.652906
v 0.000000 0.375139 0.923349
v 0.652906 0.375139 0.652906
v 0.923349 0.375139 0.000000
v 0.000000 0.375139 0.000000
vt 0.909832 0.750842
vt 0.921054 0.750842
vt 0.932275 0.750842
vt 0.943497 0.750842
vt 0.954719 0.750842
vt 0.965941 0.750842
vt 0.977163 0.750842
vt 0.988384 0.750842
vt 0.999606 0.750842
vt 0.909832 0.780508
vt 0.921054 0.780508
vt 0.932275 0.780508
vt 0.943497 0.780508
vt 0.954719 0.780508
vt 0.965941 0.780508
vt 0.977163 0.780508
vt 0.988384 0.780508
vt 0.999606 0.780508
vt 0.986396 0.819740
vt 0.953676 0.789138
vt 0.920957 0.819740
vt 0.907404 0.893620
vt 0.920957 0.967501
vt 0.953676 0.998103
vt 0.986396 0.967501
vt 0.999949 0.893620
vt 0.953676 0.889441
vn 0.382683 0.000000 -0.923880
vn 0.382683 0.000000 -0.923880
vn 0.382683 0.000000 -0.923880
vn 0.382683 0.000000 -0.923880
vn -0.382683 0.000000 -0.923880
vn -0.382683 0.000000 -0.923880
vn -0.382683 0.000000 -0.923880
vn -0.382683 0.000000 -0.923880
vn -0.923880 0.000000 -0.382683
vn -0.923880 0.000000 -0.382683
vn -0.923880 0.000000 -0.382683
vn -0.923880 0.000000 -0.382683
vn -0.923880 0.000000 0.382683
vn -0.923880 0.000000 0.382683
vn -0.923880 0.000000 0.382683
vn -0.923880 0.000000 0.382683
vn -0.382683 0.000000 0.923880
vn -0.382683 0.000000 0.923880
vn -0.382683 0.000000 0.923880
vn -0.382683 0.000000 0.923880
vn 0.382683 0.000000 0.923880
vn 0.382683 0.000000 0.923880
vn 0.382683 0.000000 0.923880
vn 0.382683 0.000000 0.923880
vn 0.923880 0.000000 0.382683
vn 0.923880 0.000000 0.382683
vn 0.923880 0.000000 0.382683
vn 0.923880 0.000000 0.382683
vn 0.923880 0.000000 -0.382684
vn 0.923880 0.000000 -0.382684
vn 0.923880 0.000000 -0.382684
vn 0.923880 0.000000 -0.382684
vn 0.000000 1.000000 0.000000
vn 0.000000 1.000000 0.000000
vn 0.000000 1.000000 0.000000
vn 0.000000 1.000000 0.000000
vn 0.000000 1.000000 0.000000
vn 0.000000 1.000000 0.000000
vn 0.000000 1.000000 0.000000
vn 0.000000 1.000000 0.000000
vn 0.000000 1.000000 0.000000
s off
g pCylinder1
usemtl initialShadingGroup
f 1/1/1 2/2/2 10/11/3 9/10/4
f 2/2/5 3/3/6 11/12/7 10/11/8
f 3/3/9 4/4/10 12/13/11 11/12/12
f 4/4/13 5/5/14 13/14/15 12/13/16
f 5/5/17 6/6/18 14/15/19 13/14/20
f 6/6/21 7/7/22 15/16/23 14/15/24
f 7/7/25 8/8/26 16/17/27 15/16/28
f 8/8/29 1/9/30 9/18/31 16/17/32
s 1
f 9/25/33 10/24/34 17/27/35
f 10/24/34 11/23/36 17/27/35
f 11/23/36 12/22/37 17/27/35
f 12/22/37 13/21/38 17/27/35
f 13/21/38 14/20/39 17/27/35
f 14/20/39 15/19/40 17/27/35
f 15/19/40 16/26/41 17/27/35
f 16/26/41 9/25/33 17/27/35
