# This file uses centimeters as units for non-parametric coordinates.

mtllib puerta.mtl
g default
v 0.148135 0.000000 0.859665
v 0.310933 0.000000 0.859665
v 0.148135 4.379636 0.859665
v 0.310933 4.379636 0.859665
v 0.148135 4.379636 -0.928734
v 0.310933 4.379636 -0.928734
v 0.148135 0.000000 -0.928734
v 0.310933 0.000000 -0.928734
vt 0.585026 0.029930
vt 0.706575 0.029930
vt 0.706575 0.771458
vt 0.585026 0.771458
vt 0.720749 0.019939
vt 0.840296 0.019939
vt 0.840296 0.772530
vt 0.720749 0.772530
vt 0.752301 0.008867
vt 0.815981 0.008867
vt 0.815981 0.380860
vt 0.752301 0.380860
vt 0.624331 0.009097
vt 0.688011 0.009097
vt 0.688011 0.381090
vt 0.624331 0.381090
vt 0.733101 0.118252
vt 0.796781 0.118252
vt 0.796781 0.725845
vt 0.733101 0.725845
vt 0.656277 0.240651
vt 0.685250 0.240651
vt 0.685250 0.548744
vt 0.656277 0.548744
vn 0.000000 0.000000 1.000000
vn 0.000000 0.000000 1.000000
vn 0.000000 0.000000 1.000000
vn 0.000000 0.000000 1.000000
vn 0.000000 1.000000 0.000000
vn 0.000000 1.000000 0.000000
vn 0.000000 1.000000 0.000000
vn 0.000000 1.000000 0.000000
vn 0.000000 0.000000 -1.000000
vn 0.000000 0.000000 -1.000000
vn 0.000000 0.000000 -1.000000
vn 0.000000 0.000000 -1.000000
vn 0.000000 -1.000000 0.000000
vn 0.000000 -1.000000 0.000000
vn 0.000000 -1.000000 0.000000
vn 0.000000 -1.000000 0.000000
vn 1.000000 0.000000 0.000000
vn 1.000000 0.000000 0.000000
vn 1.000000 0.000000 0.000000
vn 1.000000 0.000000 0.000000
vn -1.000000 0.000000 0.000000
vn -1.000000 0.000000 0.000000
vn -1.000000 0.000000 0.000000
vn -1.000000 0.000000 0.000000
s off
g pCube1
usemtl initialShadingGroup
f 1/17/1 2/18/2 4/19/3 3/20/4
f 3/9/5 4/10/6 6/11/7 5/12/8
f 5/21/9 6/22/10 8/23/11 7/24/12
f 7/13/13 8/14/14 2/15/15 1/16/16
f 2/1/17 8/2/18 6/3/19 4/4/20
f 7/5/21 1/6/22 3/7/23 5/8/24
