# This file uses centimeters as units for non-parametric coordinates.

mtllib frigorifico.mtl
g default
v 0.000000 0.000000 0.000000
v 1.000000 0.000000 0.000000
v 0.000000 1.962000 0.000000
v 1.000000 1.962000 0.000000
v 0.000000 1.962000 -1.000000
v 1.000000 1.962000 -1.000000
v 0.000000 0.000000 -1.000000
vt 0.087297 0.001992
vt 0.422308 0.001992
vt 0.422308 0.659285
vt 0.087297 0.659285
vt 0.590287 1.001867
vt 0.590287 0.784232
vt 0.925298 0.784232
vt 0.925298 1.001867
vt 0.505177 0.030374
vt 1.006305 0.030374
vt 1.006305 0.766423
vt 0.505177 0.766423
vn 0.000000 0.000000 1.000000
vn 0.000000 0.000000 1.000000
vn 0.000000 0.000000 1.000000
vn 0.000000 0.000000 1.000000
vn 0.000000 1.000000 0.000000
vn 0.000000 1.000000 0.000000
vn 0.000000 1.000000 0.000000
vn 0.000000 1.000000 0.000000
vn -1.000000 0.000000 0.000000
vn -1.000000 0.000000 0.000000
vn -1.000000 0.000000 0.000000
vn -1.000000 0.000000 0.000000
s off
g pCube17
usemtl initialShadingGroup1
f 1/9/1 2/10/2 4/11/3 3/12/4
f 3/5/5 4/6/6 6/7/7 5/8/8
f 7/1/9 1/2/10 3/3/11 5/4/12
