# This file uses centimeters as units for non-parametric coordinates.

mtllib mueble_bar.mtl
g default
v 0.000000 0.000000 0.000000
v 0.630948 0.000000 0.000000
v 0.000000 1.983805 0.000000
v 0.630948 1.983805 0.000000
v 0.000000 1.983805 -1.906995
v 0.630948 1.983805 -1.906995
v 0.000000 0.000000 -1.906995
v 0.630948 0.000000 -1.906995
vt 0.036152 0.053380
vt 0.322256 0.053380
vt 0.322256 0.414339
vt 0.036152 0.414339
vt 0.029105 0.094314
vt 0.148559 0.094314
vt 0.148559 0.184851
vt 0.029105 0.184851
vt 0.239782 0.031778
vt 0.321914 0.031778
vt 0.321914 0.182201
vt 0.239782 0.182201
vt 0.237524 0.021011
vt 0.325014 0.021011
vt 0.325014 0.180861
vt 0.237524 0.180861
vn 0.000000 0.000000 1.000000
vn 0.000000 0.000000 1.000000
vn 0.000000 0.000000 1.000000
vn 0.000000 0.000000 1.000000
vn 0.000000 1.000000 0.000000
vn 0.000000 1.000000 0.000000
vn 0.000000 1.000000 0.000000
vn 0.000000 1.000000 0.000000
vn 0.000000 0.000000 -1.000000
vn 0.000000 0.000000 -1.000000
vn 0.000000 0.000000 -1.000000
vn 0.000000 0.000000 -1.000000
vn 1.000000 0.000000 0.000000
vn 1.000000 0.000000 0.000000
vn 1.000000 0.000000 0.000000
vn 1.000000 0.000000 0.000000
s off
g pCube20
usemtl initialShadingGroup1
f 1/9/1 2/10/2 4/11/3 3/12/4
f 3/5/5 4/6/6 6/7/7 5/8/8
f 5/13/9 6/14/10 8/15/11 7/16/12
f 2/1/13 8/2/14 6/3/15 4/4/16
