# This file uses centimeters as units for non-parametric coordinates.

mtllib fregadero.mtl
g default
v -0.066383 0.754454 -0.139202
v -0.679212 0.754454 -0.139202
v -0.066383 0.754454 -0.979566
v -0.679212 0.754454 -0.979566
v -0.038489 0.885678 -1.017816
v -0.038489 0.885678 -1.854666
v -0.707106 0.885678 -1.854666
v -0.707106 0.885678 -1.017816
v -0.707106 0.885678 -0.100951
v -0.038489 0.885678 -0.100951
v -0.745594 0.000000 -0.000000
v 0.000000 0.000000 -0.000000
v -0.745594 0.885678 -0.000000
v 0.000000 0.885678 -0.000000
v -0.745594 0.885678 -1.955618
v 0.000000 0.885678 -1.955618
v -0.745594 0.000000 -1.955618
v 0.000000 0.000000 -1.955618
v -0.038489 0.885678 -0.100951
v -0.707106 0.885678 -0.100951
v -0.038489 0.885678 -1.854666
v -0.707106 0.885678 -1.854666
v -0.038489 0.885678 -1.017816
v -0.707106 0.885678 -1.017816
v -0.745594 0.885678 -1.022422
v -0.745594 0.000000 -1.022422
v 0.000000 0.000000 -1.022422
v 0.000000 0.885678 -1.022422
vt 0.032339 0.779454
vt 0.071627 0.779454
vt 0.071627 0.861616
vt 0.032339 0.861616
vt 0.030551 0.872124
vt 0.073416 0.872124
vt 0.073416 0.953943
vt 0.030551 0.953943
vt 0.030551 0.782482
vt 0.073416 0.782482
vt 0.217945 0.772612
vt 0.217945 0.862254
vt 0.211911 0.858514
vt 0.211911 0.776352
vt 0.225547 0.772612
vt 0.225547 0.862254
vt 0.219513 0.858514
vt 0.219513 0.776352
vt 0.498567 0.532402
vt 0.498567 0.489254
vt 0.535331 0.489254
vt 0.535331 0.532402
vt 0.460532 0.624076
vt 0.460532 0.580928
vt 0.497296 0.580928
vt 0.497296 0.624076
vt 0.373491 0.489869
vt 0.416639 0.489869
vt 0.416639 0.580102
vt 0.373491 0.580102
vt 0.418295 0.580102
vt 0.418295 0.489869
vt 0.455059 0.489869
vt 0.455059 0.580102
vt 0.456641 0.497743
vt 0.456641 0.407510
vt 0.493405 0.407510
vt 0.493405 0.497743
vt 0.329050 0.407510
vt 0.372198 0.407510
vt 0.345531 0.436785
vt 0.306838 0.436785
vt 0.372198 0.497743
vt 0.345531 0.517702
vt 0.372198 0.580102
vt 0.329050 0.580102
vt 0.306838 0.591558
vt 0.345531 0.591558
vt 0.329050 0.497743
vt 0.306838 0.517702
vt 0.456641 0.580102
vt 0.493405 0.580102
vt 0.373491 0.407510
vt 0.416639 0.407510
vt 0.418295 0.407510
vt 0.455059 0.407510
vn 0.000000 1.000000 0.000000
vn 0.000000 1.000000 0.000000
vn 0.000000 1.000000 0.000000
vn 0.000000 1.000000 0.000000
vn 0.000000 1.000000 0.000000
vn 0.000000 1.000000 0.000000
vn 0.000000 1.000000 0.000000
vn 0.000000 1.000000 0.000000
vn 0.000000 0.279843 -0.960046
vn 0.000000 0.279843 -0.960046
vn 0.000000 1.000000 0.000000
vn 0.000000 1.000000 0.000000
vn -0.978145 0.207922 0.000000
vn -0.978145 0.207922 0.000000
vn -0.978145 0.207922 0.000000
vn 0.000000 1.000000 0.000000
vn 0.000000 0.279844 0.960046
vn 0.000000 0.279844 0.960046
vn 0.000000 0.279844 0.960046
vn 0.000000 0.279844 0.960046
vn 0.978145 0.207922 0.000000
vn 0.978145 0.207922 0.000000
vn 0.000000 1.000000 0.000000
vn 0.978145 0.207922 0.000000
vn 0.000000 0.000000 1.000000
vn 0.000000 0.000000 1.000000
vn 0.000000 0.000000 1.000000
vn 0.000000 0.000000 1.000000
vn -0.000000 0.000000 -1.000000
vn -0.000000 0.000000 -1.000000
vn -0.000000 0.000000 -1.000000
vn -0.000000 0.000000 -1.000000
vn 0.000000 -1.000000 0.000000
vn 0.000000 -1.000000 0.000000
vn 0.000000 -1.000000 0.000000
vn 0.000000 -1.000000 0.000000
vn 1.000000 0.000000 0.000000
vn 1.000000 0.000000 0.000000
vn 1.000000 0.000000 0.000000
vn 1.000000 0.000000 0.000000
vn -1.000000 0.000000 0.000000
vn -1.000000 0.000000 -0.000000
vn -1.000000 0.000000 -0.000000
vn -1.000000 0.000000 0.000000
vn 0.000000 1.000000 0.000000
vn 0.000000 1.000000 0.000000
vn 0.000000 1.000000 0.000000
vn 0.000000 1.000000 0.000000
vn 0.000000 1.000000 0.000000
vn 0.000000 1.000000 0.000000
vn 0.000000 1.000000 0.000000
vn 0.000000 1.000000 0.000000
vn 0.000000 1.000000 0.000000
vn 0.000000 1.000000 0.000000
vn 0.000000 1.000000 0.000000
vn 0.000000 1.000000 0.000000
vn 0.000000 1.000000 0.000000
vn 0.000000 1.000000 0.000000
vn 0.000000 1.000000 0.000000
vn 0.000000 1.000000 0.000000
vn 0.000000 1.000000 0.000000
vn 0.000000 1.000000 0.000000
vn -1.000000 0.000000 -0.000000
vn -1.000000 0.000000 -0.000000
vn 0.000000 -1.000000 0.000000
vn 0.000000 -1.000000 0.000000
vn 1.000000 0.000000 0.000000
vn 1.000000 0.000000 0.000000
vn 0.000000 1.000000 0.000000
vn 0.000000 1.000000 0.000000
s off
g polySurface2
usemtl initialShadingGroup1
f 2/1/1 1/2/2 3/3/3 4/4/4
f 8/5/5 5/6/6 6/7/7 7/8/8
f 9/9/9 10/10/10 1/2/11 2/1/12
f 10/11/13 5/12/14 3/13/15 1/14/16
f 5/6/17 8/5/18 4/4/19 3/3/20
f 8/15/21 9/16/22 2/17/23 4/18/24
f 11/19/25 12/20/26 14/21/27 13/22/28
f 15/23/29 16/24/30 18/25/31 17/26/32
s 1
f 26/27/33 27/28/34 12/29/35 11/30/36
s 2
f 12/31/37 27/32/38 28/33/39 14/34/40
s 3
f 26/35/41 11/36/42 13/37/43 25/38/44
s off
f 13/39/45 14/40/46 19/41/47 20/42/48
s 4
f 14/40/49 28/43/50 23/44/51 19/41/52
s off
f 16/45/53 15/46/54 22/47/55 21/48/56
s 5
f 25/49/57 13/39/58 20/42/59 24/50/60
f 15/46/61 25/49/57 24/50/60 22/47/62
s 3
f 17/51/63 26/35/41 25/38/44 15/52/64
s 1
f 17/53/65 18/54/66 27/28/34 26/27/33
s 2
f 28/33/39 27/32/38 18/55/67 16/56/68
s 4
f 23/44/51 28/43/50 16/45/69 21/48/70
