# This file uses centimeters as units for non-parametric coordinates.

mtllib mesita_tv.mtl
g default
v -0.931785 0.000000 1.515426
v 0.000000 0.000000 1.515426
v -0.931785 0.921913 1.515426
v 0.000000 0.921913 1.515426
v -0.931785 0.921913 0.000000
v 0.000000 0.921913 0.000000
v -0.931785 0.000000 0.000000
v 0.000000 0.000000 0.000000
vt 0.727840 0.016355
vt 0.256791 0.016355
vt 0.256791 0.500816
vt 0.727840 0.500816
vt 0.257578 0.503885
vt 0.691574 0.503885
vt 0.691574 0.878727
vt 0.257578 0.878727
vt 0.737572 0.504370
vt 0.737572 0.256287
vt 0.920464 0.256287
vt 0.920464 0.504370
vt 0.744376 0.498069
vt 0.744376 0.249985
vt 0.927268 0.249985
vt 0.927268 0.498069
vn 0.000000 0.000000 1.000000
vn 0.000000 0.000000 1.000000
vn 0.000000 0.000000 1.000000
vn 0.000000 0.000000 1.000000
vn 0.000000 1.000000 0.000000
vn 0.000000 1.000000 0.000000
vn 0.000000 1.000000 0.000000
vn 0.000000 1.000000 0.000000
vn 0.000000 0.000000 -1.000000
vn 0.000000 0.000000 -1.000000
vn 0.000000 0.000000 -1.000000
vn 0.000000 0.000000 -1.000000
vn -1.000000 0.000000 0.000000
vn -1.000000 0.000000 0.000000
vn -1.000000 0.000000 0.000000
vn -1.000000 0.000000 0.000000
s off
g pCube18
usemtl initialShadingGroup1
f 1/9/1 2/10/2 4/11/3 3/12/4
f 3/5/5 4/6/6 6/7/7 5/8/8
f 5/13/9 6/14/10 8/15/11 7/16/12
f 7/1/13 1/2/14 3/3/15 5/4/16
