# This file uses centimeters as units for non-parametric coordinates.

mtllib armario padre.mtl
g default
v -0.996760 0.000000 0.564074
v 0.000000 0.000000 0.564074
v -0.996760 2.020787 0.564074
v 0.000000 2.020787 0.564074
v -0.996760 2.020787 0.000000
v 0.000000 2.020787 0.000000
v -0.996760 0.000000 0.000000
v 0.000000 0.000000 0.000000
vt 0.527227 0.037266
vt 0.760209 0.037266
vt 0.760209 0.973555
vt 0.527227 0.973555
vt 0.407216 0.307242
vt 0.479786 0.307242
vt 0.479786 0.648800
vt 0.407216 0.648800
vt 0.390163 0.035363
vt 0.496517 0.035363
vt 0.496517 0.626550
vt 0.390163 0.626550
vt 0.390303 0.090473
vt 0.485873 0.090473
vt 0.485873 0.717252
vt 0.390303 0.717252
vn 0.000000 0.000000 1.000000
vn 0.000000 0.000000 1.000000
vn 0.000000 0.000000 1.000000
vn 0.000000 0.000000 1.000000
vn 0.000000 1.000000 0.000000
vn 0.000000 1.000000 0.000000
vn 0.000000 1.000000 0.000000
vn 0.000000 1.000000 0.000000
vn 1.000000 0.000000 0.000000
vn 1.000000 0.000000 0.000000
vn 1.000000 0.000000 0.000000
vn 1.000000 0.000000 0.000000
vn -1.000000 0.000000 0.000000
vn -1.000000 0.000000 0.000000
vn -1.000000 0.000000 0.000000
vn -1.000000 0.000000 0.000000
s off
g armario_padre:pCube25
usemtl initialShadingGroup
f 1/1/1 2/2/2 4/3/3 3/4/4
f 3/5/5 4/6/6 6/7/7 5/8/8
f 2/9/9 8/10/10 6/11/11 4/12/12
f 7/13/13 1/14/14 3/15/15 5/16/16
