# This file uses centimeters as units for non-parametric coordinates.

mtllib placaducha.mtl
g default
v -1.022528 -0.000000 0.655082
v 0.945900 -0.000000 0.655082
v -1.022528 0.103166 0.655082
v 0.945900 0.103166 0.655082
v -1.022528 0.103166 -0.689348
v 0.945900 0.103166 -0.689348
v -1.022528 -0.000000 -0.689348
v 0.945900 -0.000000 -0.689348
v -0.944688 0.103166 0.601917
v 0.868059 0.103166 0.601917
v 0.868059 0.103166 -0.636184
v -0.944688 0.103166 -0.636184
v -0.944688 0.005714 0.601917
v 0.868059 0.005714 0.601917
v 0.868059 0.005714 -0.636184
v -0.944688 0.005714 -0.636184
vt 0.203476 0.786208
vt 0.203476 0.728701
vt 0.207889 0.728701
vt 0.207889 0.786208
vt 0.208283 0.844287
vt 0.208283 0.786781
vt 0.212696 0.786781
vt 0.212696 0.844287
vt 0.207402 0.786781
vt 0.207402 0.839739
vt 0.203234 0.839739
vt 0.203234 0.786781
vt 0.202353 0.806812
vt 0.202353 0.859771
vt 0.198185 0.859771
vt 0.198185 0.806812
vt 0.010521 0.910866
vt 0.010521 0.004374
vt 0.346171 0.004374
vt 0.346171 0.910866
vt 0.007198 0.596164
vt 0.007198 0.009637
vt 0.020881 0.032831
vt 0.020881 0.572970
vt 0.353212 0.009637
vt 0.339529 0.032831
vt 0.353212 0.596164
vt 0.339529 0.572970
vt 0.031410 0.992340
vt 0.031410 0.634145
vt 0.050183 0.634145
vt 0.050183 0.992340
vt 0.047028 0.885385
vt 0.047028 0.709855
vt 0.077769 0.709855
vt 0.077769 0.885385
vt 0.192845 0.806239
vt 0.192845 0.728701
vt 0.197013 0.728701
vt 0.197013 0.806239
vt 0.202329 0.728701
vt 0.202329 0.806239
vt 0.198161 0.806239
vt 0.198161 0.728701
vn 0.000000 0.000000 1.000000
vn 0.000000 0.000000 1.000000
vn 0.000000 0.000000 1.000000
vn 0.000000 0.000000 1.000000
vn 0.000000 1.000000 0.000000
vn 0.000000 1.000000 0.000000
vn 0.000000 1.000000 0.000000
vn 0.000000 1.000000 0.000000
vn 0.000000 0.000000 -1.000000
vn 0.000000 0.000000 -1.000000
vn 0.000000 0.000000 -1.000000
vn 0.000000 0.000000 -1.000000
vn 1.000000 0.000000 0.000000
vn 1.000000 0.000000 0.000000
vn 1.000000 0.000000 0.000000
vn 1.000000 0.000000 0.000000
vn -1.000000 0.000000 0.000000
vn -1.000000 0.000000 0.000000
vn -1.000000 0.000000 0.000000
vn -1.000000 0.000000 0.000000
vn 0.000000 1.000000 0.000000
vn 0.000000 1.000000 0.000000
vn 0.000000 1.000000 0.000000
vn 0.000000 1.000000 0.000000
vn 0.000000 1.000000 0.000000
vn 0.000000 1.000000 0.000000
vn 0.000000 1.000000 0.000000
vn 0.000000 1.000000 0.000000
vn 0.000000 1.000000 0.000000
vn 0.000000 1.000000 0.000000
vn 0.000000 1.000000 0.000000
vn 0.000000 1.000000 0.000000
vn 0.000000 1.000000 0.000000
vn 0.000000 1.000000 0.000000
vn 0.000000 1.000000 0.000000
vn 0.000000 1.000000 0.000000
vn 0.000000 0.000000 -1.000000
vn 0.000000 0.000000 -1.000000
vn 0.000000 0.000000 -1.000000
vn 0.000000 0.000000 -1.000000
vn -1.000000 0.000000 0.000000
vn -1.000000 0.000000 0.000000
vn -1.000000 0.000000 0.000000
vn -1.000000 0.000000 0.000000
vn 0.000000 0.000000 1.000000
vn 0.000000 0.000000 1.000000
vn 0.000000 0.000000 1.000000
vn 0.000000 0.000000 1.000000
vn 1.000000 0.000000 0.000000
vn 1.000000 0.000000 0.000000
vn 1.000000 0.000000 0.000000
vn 1.000000 0.000000 0.000000
s off
g initialShadingGroup pCube47
f 1/29/1 2/30/2 4/31/3 3/32/4
f 13/17/5 14/18/6 15/19/7 16/20/8
f 5/33/9 6/34/10 8/35/11 7/36/12
f 2/1/13 8/2/14 6/3/15 4/4/16
f 7/5/17 1/6/18 3/7/19 5/8/20
f 3/21/21 4/22/22 10/23/23 9/24/24
f 4/22/25 6/25/26 11/26/27 10/23/28
f 6/25/29 5/27/30 12/28/31 11/26/32
f 5/27/33 3/21/34 9/24/35 12/28/36
f 9/37/37 10/38/38 14/39/39 13/40/40
f 10/9/41 11/10/42 15/11/43 14/12/44
f 11/41/45 12/42/46 16/43/47 15/44/48
f 12/13/49 9/14/50 13/15/51 16/16/52
